<?xml version="1.0" standalone="no"?>
<!DOCTYPE svg PUBLIC "-//W3C//DTD SVG 20010904//EN"
 "http://www.w3.org/TR/2001/REC-SVG-20010904/DTD/svg10.dtd">
<svg version="1.0" xmlns="http://www.w3.org/2000/svg"
 width="512.000000pt" height="512.000000pt" viewBox="0 0 512.000000 512.000000"
 preserveAspectRatio="xMidYMid meet">
<metadata>
Created by potrace 1.11, written by Peter Selinger 2001-2013
</metadata>
<g transform="translate(0.000000,512.000000) scale(0.100000,-0.100000)"
fill="#000000" stroke="none">
<path d="M470 5091 c-239 -78 -369 -209 -444 -449 l-26 -83 0 -2007 0 -2007
29 -81 c57 -166 148 -291 260 -358 31 -19 99 -49 151 -67 l95 -34 2004 -3
c1993 -2 2005 -2 2080 18 118 32 251 102 315 166 64 64 134 197 166 315 20 75
20 87 18 2080 l-3 2004 -37 103 c-20 56 -50 124 -67 151 -69 107 -195 197
-355 252 l-81 29 -2010 -1 -2010 0 -85 -28z m3375 -1836 l0 -230 -126 -3 -127
-3 -17 71 -17 70 -277 0 -277 0 -27 -227 c-15 -126 -27 -231 -27 -235 0 -4 26
5 58 21 83 43 166 61 274 61 110 0 223 -25 301 -67 126 -67 234 -222 274 -390
25 -109 25 -342 -1 -433 -48 -168 -171 -329 -301 -397 -110 -58 -202 -77 -360
-77 -163 0 -237 15 -360 74 -199 96 -308 248 -316 441 l-3 64 115 6 c63 4 151
7 197 8 79 1 82 0 82 -22 0 -50 32 -129 68 -169 55 -61 120 -88 213 -88 127 0
195 47 248 173 24 57 26 73 25 197 0 114 -3 143 -22 190 -54 136 -132 191
-271 191 -121 0 -199 -40 -241 -122 -18 -35 -20 -36 -67 -32 -26 2 -106 7
-176 12 -70 5 -130 11 -132 13 -4 4 99 1036 111 1106 l5 32 587 -2 587 -3 0
-230z m-1845 -649 c0 -824 1 -875 18 -880 9 -2 86 -13 170 -22 l152 -18 0
-123 0 -123 -550 0 -550 0 0 123 0 123 158 18 c86 10 165 20 175 23 16 4 17
44 15 696 l-3 692 -172 3 -173 2 0 115 0 114 37 7 c372 70 665 122 691 123
l32 1 0 -874z"/>
</g>
</svg>
