<?xml version="1.0" standalone="no"?>
<!DOCTYPE svg PUBLIC "-//W3C//DTD SVG 20010904//EN"
 "http://www.w3.org/TR/2001/REC-SVG-20010904/DTD/svg10.dtd">
<svg version="1.0" xmlns="http://www.w3.org/2000/svg"
 width="512.000000pt" height="512.000000pt" viewBox="0 0 512.000000 512.000000"
 preserveAspectRatio="xMidYMid meet">
<metadata>
Created by potrace 1.11, written by Peter Selinger 2001-2013
</metadata>
<g transform="translate(0.000000,512.000000) scale(0.100000,-0.100000)"
fill="#000000" stroke="none">
<path d="M5 5108 c-3 -7 -4 -1158 -3 -2558 l3 -2545 2555 0 2555 0 0 2555 0
2555 -2553 3 c-2037 2 -2554 0 -2557 -10z m2015 -2433 l0 -875 23 -4 c12 -3
88 -13 170 -22 l147 -17 0 -124 0 -123 -550 0 -550 0 0 123 0 124 153 17 c83
10 162 20 175 23 l22 5 0 689 0 689 -175 0 -175 0 0 120 0 119 38 7 c282 54
709 130 715 127 4 -2 7 -398 7 -878z m1848 648 l2 -233 -129 0 -129 0 -17 70
-17 70 -277 -2 -276 -3 -27 -210 c-36 -288 -40 -261 33 -224 89 45 150 59 269
59 183 0 310 -48 420 -159 110 -112 166 -260 177 -466 13 -246 -57 -440 -209
-581 -108 -99 -243 -150 -428 -160 -296 -17 -570 114 -672 321 -35 71 -70 247
-51 258 5 3 94 8 199 12 l191 7 8 -48 c15 -103 62 -168 150 -210 72 -34 182
-34 251 1 59 31 88 66 123 148 24 57 26 74 26 197 -1 121 -3 141 -26 196 -34
82 -74 130 -133 159 -42 21 -64 25 -135 25 -125 -1 -199 -38 -242 -122 l-18
-36 -58 4 c-32 3 -111 9 -175 13 -65 4 -120 10 -123 13 -4 4 98 1034 110 1106
l6 32 587 -2 587 -3 3 -232z"/>
</g>
</svg>
