<?xml version="1.0" standalone="no"?>
<!DOCTYPE svg PUBLIC "-//W3C//DTD SVG 20010904//EN"
 "http://www.w3.org/TR/2001/REC-SVG-20010904/DTD/svg10.dtd">
<svg version="1.0" xmlns="http://www.w3.org/2000/svg"
 width="260.000000pt" height="260.000000pt" viewBox="0 0 260.000000 260.000000"
 preserveAspectRatio="xMidYMid meet">
<metadata>
Created by potrace 1.11, written by Peter Selinger 2001-2013
</metadata>
<g transform="translate(0.000000,260.000000) scale(0.100000,-0.100000)"
fill="#000000" stroke="none">
<path d="M204 2590 c-111 -12 -160 -47 -186 -134 -10 -32 -13 -291 -13 -1156
0 -1220 -2 -1175 59 -1236 61 -61 16 -59 1236 -59 1220 0 1175 -2 1236 59 61
61 59 16 59 1236 0 1220 2 1175 -59 1236 -60 60 -14 58 -1186 60 -591 1 -1107
-2 -1146 -6z m847 -1237 c0 -320 4 -458 12 -483 14 -41 47 -60 105 -60 35 0
42 -3 42 -20 0 -20 -7 -20 -280 -20 -273 0 -280 0 -280 20 0 17 7 20 48 20 61
0 93 17 114 60 16 31 18 71 18 376 0 317 -1 343 -18 364 -22 27 -56 29 -120 6
-42 -15 -43 -15 -40 5 2 16 41 37 183 99 99 43 188 79 198 79 16 1 17 -27 18
-446z m947 415 c-3 -7 -17 -50 -32 -95 l-28 -83 -207 0 -208 0 -12 -42 c-7
-24 -14 -50 -17 -59 -4 -13 8 -17 68 -23 247 -23 380 -117 408 -290 37 -228
-148 -416 -409 -416 -97 0 -144 14 -188 54 -27 24 -35 40 -36 68 -1 49 25 86
67 93 45 9 58 4 167 -62 106 -64 154 -74 208 -46 101 53 106 191 12 276 -72
65 -227 117 -350 117 -27 0 -52 4 -56 9 -4 7 74 300 131 494 5 16 25 17 246
17 188 0 239 -3 236 -12z"/>
</g>
</svg>
